<?xml version="1.0" standalone="no"?>
<!DOCTYPE svg PUBLIC "-//W3C//DTD SVG 20010904//EN"
 "http://www.w3.org/TR/2001/REC-SVG-20010904/DTD/svg10.dtd">
<svg version="1.0" xmlns="http://www.w3.org/2000/svg"
 width="1024.000000pt" height="1024.000000pt" viewBox="0 0 1024.000000 1024.000000"
 preserveAspectRatio="xMidYMid meet">
<metadata>
Created by potrace 1.14, written by Peter Selinger 2001-2017
</metadata>
<g transform="translate(0.000000,1024.000000) scale(0.100000,-0.100000)"
fill="#000000" stroke="none">
<path d="M4780 10233 c-787 -57 -1529 -282 -2200 -666 -158 -90 -429 -272
-579 -388 -192 -150 -153 -138 -334 -100 -200 41 -273 47 -365 27 -115 -24
-196 -69 -282 -156 -72 -72 -82 -88 -242 -395 -91 -176 -174 -344 -182 -374
-10 -33 -16 -91 -16 -145 1 -77 8 -114 43 -236 l42 -145 -115 -230 c-311 -618
-486 -1243 -540 -1929 -13 -167 -13 -584 0 -757 56 -720 262 -1427 597 -2044
842 -1549 2382 -2550 4132 -2685 175 -13 590 -13 762 1 1427 112 2724 796
3613 1905 657 821 1040 1795 1117 2842 23 318 3 805 -46 1132 -84 557 -303
1205 -563 1667 l-50 89 44 153 c37 128 44 166 44 240 0 50 -7 111 -16 142 -8
30 -91 198 -182 374 -161 308 -170 323 -242 395 -86 87 -168 132 -282 156 -92
20 -165 14 -364 -27 -125 -26 -158 -30 -176 -21 -13 7 -77 55 -143 108 -135
107 -437 311 -595 402 -662 377 -1391 601 -2159 661 -121 10 -608 12 -721 4z
m150 -740 c1 -10 11 -106 24 -213 13 -107 23 -196 21 -198 -2 -2 -28 -6 -59
-9 -44 -5 -56 -3 -57 8 0 8 -8 75 -18 149 l-17 135 -103 -157 c-57 -87 -107
-158 -111 -158 -5 0 -67 57 -139 126 -73 70 -134 125 -137 122 -2 -3 3 -65 12
-137 8 -73 13 -138 11 -146 -4 -8 -26 -14 -57 -16 -44 -4 -51 -1 -55 16 -5 24
-45 375 -45 392 0 13 25 19 117 28 l62 7 106 -103 c100 -97 106 -101 120 -83
8 10 47 67 86 126 l71 107 66 6 c37 4 72 8 77 10 20 7 25 5 25 -12z m291 7
l49 0 67 -85 68 -84 75 74 c74 74 76 75 125 74 28 -1 63 -4 79 -8 30 -6 30 -6
-72 -101 -56 -52 -102 -98 -102 -102 0 -5 43 -56 96 -114 53 -57 94 -107 92
-109 -2 -3 -40 -2 -84 1 l-80 7 -64 78 c-36 44 -70 79 -75 79 -6 0 -42 -31
-80 -70 l-69 -70 -61 1 c-121 2 -121 3 -1 109 58 52 106 97 106 100 0 3 -40
54 -90 114 -49 59 -90 110 -90 113 0 3 14 3 31 -1 17 -3 53 -6 80 -6z m709
-62 l56 -11 49 -179 c26 -98 51 -178 54 -178 3 0 60 63 126 140 132 155 114
145 218 119 l38 -10 -147 -167 c-81 -92 -155 -175 -164 -185 -15 -16 -20 -16
-90 -1 -41 9 -78 19 -82 23 -14 13 -135 461 -125 461 6 0 36 -5 67 -12z
m-1872 -262 c34 -107 62 -198 62 -203 0 -6 -18 -15 -41 -22 -23 -7 -47 -15
-54 -17 -9 -4 -26 36 -55 128 -23 73 -45 136 -49 141 -4 4 -38 -70 -76 -165
-37 -95 -69 -174 -70 -176 -2 -2 -74 42 -161 97 -86 56 -159 99 -161 97 -3 -2
14 -61 36 -131 23 -70 41 -133 41 -139 0 -10 -100 -51 -106 -43 -2 3 -126 390
-127 401 -1 5 36 20 83 35 l85 27 123 -80 c98 -63 126 -76 133 -65 4 8 32 71
61 141 l53 126 65 21 c36 11 72 20 81 20 11 1 31 -48 77 -193z m2598 78 c27
-9 50 -18 52 -20 5 -3 -119 -388 -128 -397 -11 -12 -122 24 -117 37 3 6 33 98
68 204 34 105 66 192 69 192 4 0 29 -7 56 -16z m266 -97 l46 -22 -75 -190
c-41 -104 -78 -193 -82 -198 -8 -8 -111 31 -111 43 0 5 30 84 66 177 36 92 70
178 75 191 10 27 21 27 81 -1z m-5143 -468 c152 -33 293 -65 315 -70 34 -9
188 -121 612 -445 l91 -70 -73 -159 c-40 -88 -73 -166 -74 -173 0 -8 19 0 46
19 95 65 333 202 484 279 489 247 973 395 1495 456 111 13 226 18 445 18 219
0 334 -5 445 -18 511 -60 975 -199 1450 -435 185 -92 418 -224 529 -300 27
-19 46 -27 46 -19 -1 7 -34 85 -74 173 l-73 159 91 70 c424 324 578 436 612
445 22 5 165 37 318 71 202 44 290 60 315 55 70 -13 110 -46 190 -155 206
-280 303 -501 305 -690 0 -75 -7 -111 -63 -310 -66 -237 -108 -334 -196 -460
-43 -63 -465 -558 -475 -559 -3 -1 -64 118 -135 263 l-130 264 -233 82 c-128
45 -235 80 -238 78 -11 -12 507 -1179 1095 -2465 l631 -1383 -61 -142 c-122
-288 -312 -626 -490 -874 -101 -140 -249 -327 -255 -321 -2 2 23 329 56 726
33 397 59 725 57 729 -49 91 -1131 1931 -1134 1928 -2 -2 110 -323 250 -712
140 -390 307 -867 372 -1061 l118 -351 -108 -884 -107 -883 -41 -38 c-72 -65
-241 -196 -371 -287 -1330 -931 -3061 -1108 -4561 -465 -460 197 -968 524
-1308 841 l-48 46 -111 907 -111 906 229 447 c187 365 229 440 232 414 1 -17
-1 -220 -5 -450 l-8 -419 290 -964 291 -964 294 -170 c162 -93 298 -169 302
-169 4 0 -163 510 -372 1133 l-380 1133 -61 1069 c-34 589 -63 1072 -65 1074
-2 2 -6 2 -8 0 -2 -2 -258 -440 -570 -973 l-567 -968 61 -726 c33 -399 59
-726 57 -728 -5 -5 -122 153 -214 291 -158 236 -298 495 -413 765 l-60 140
631 1383 c590 1290 1106 2453 1095 2465 -3 2 -110 -33 -238 -78 l-233 -82
-128 -262 c-70 -143 -131 -262 -135 -263 -10 -3 -425 481 -477 557 -88 126
-130 223 -196 460 -56 199 -63 235 -63 310 2 188 104 421 304 690 88 118 139
156 214 159 10 1 143 -26 295 -60z"/>
<path d="M5034 7140 c-116 -18 -320 -108 -509 -226 l-81 -51 -719 97 c-396 53
-722 95 -725 93 -2 -2 -14 -96 -25 -209 l-21 -205 105 -151 105 -151 156 -115
c85 -63 180 -133 211 -156 l56 -41 -114 -260 c-63 -143 -204 -468 -313 -722
l-198 -462 24 -338 c14 -186 27 -348 29 -359 3 -12 116 -125 252 -252 l248
-231 239 -411 c132 -226 242 -413 246 -415 5 -3 82 39 256 141 l42 24 288
-355 c159 -195 292 -355 295 -355 7 0 49 112 167 442 37 103 69 188 72 188 3
0 35 -85 72 -188 118 -332 160 -442 167 -442 4 0 137 160 295 355 l288 354 42
-24 c174 -101 251 -143 256 -140 4 2 114 189 246 415 l239 410 248 231 c137
129 249 240 251 252 3 12 16 174 30 361 l24 339 -198 461 c-109 253 -250 578
-313 721 l-114 260 56 41 c31 23 126 93 211 156 l156 115 105 151 105 151 -22
208 c-12 114 -23 208 -23 209 -1 0 -325 -43 -722 -96 l-721 -97 -106 65 c-132
79 -306 163 -392 190 -77 24 -195 34 -266 22z m-906 -540 c-18 -30 -48 -82
-67 -114 l-36 -59 -115 -27 -115 -27 -65 24 c-36 14 -96 37 -134 51 -56 21
-88 44 -185 130 -64 58 -117 106 -119 108 -2 1 -1 26 3 56 l7 54 428 -70 429
-70 -31 -56z m2815 80 c-4 -4 -56 -51 -115 -104 -104 -94 -111 -99 -235 -148
-70 -27 -138 -50 -149 -50 -34 -1 -218 44 -231 56 -6 6 -39 58 -72 116 l-60
105 427 70 427 70 8 -54 c5 -29 5 -57 0 -61z m-1653 -49 l146 -19 220 -102
220 -101 156 -144 156 -144 121 -285 c221 -520 406 -981 507 -1265 l45 -124
-23 -214 -22 -213 -183 -61 -182 -60 -216 71 c-119 39 -220 70 -225 68 -5 -2
70 -88 166 -193 97 -104 172 -191 167 -192 -4 -2 -192 -57 -418 -123 -400
-118 -415 -122 -607 -145 l-197 -24 -198 24 c-194 24 -207 27 -608 145 -225
66 -414 122 -419 123 -5 2 71 88 167 192 97 105 172 191 167 193 -5 2 -106
-29 -225 -68 l-216 -71 -182 60 -183 61 -22 213 -23 212 29 85 c74 216 300
782 523 1305 l121 285 156 144 156 144 221 102 220 102 135 18 c173 23 178 23
350 1z"/>
<path d="M4977 6274 c-67 -15 -631 -232 -674 -260 -32 -20 -30 -44 22 -221 25
-84 45 -155 45 -156 0 -2 137 -102 305 -223 l304 -219 1 -144 0 -143 -94 -107
-95 -107 -261 -54 -261 -54 -140 -189 c-77 -104 -139 -191 -136 -193 2 -2 88
41 192 96 l189 100 746 0 746 0 189 -100 c104 -55 190 -98 193 -96 2 2 -60 89
-137 193 l-140 189 -261 54 -261 54 -95 108 -94 107 0 143 1 143 304 219 c168
121 305 221 305 223 0 1 20 72 45 156 52 177 54 201 23 221 -48 31 -609 245
-681 260 -93 19 -189 19 -280 0z"/>
</g>
</svg>
