<?xml version="1.0" standalone="no"?>
<!DOCTYPE svg PUBLIC "-//W3C//DTD SVG 20010904//EN"
 "http://www.w3.org/TR/2001/REC-SVG-20010904/DTD/svg10.dtd">
<svg version="1.0" xmlns="http://www.w3.org/2000/svg"
 width="1024.000000pt" height="1024.000000pt" viewBox="0 0 1024.000000 1024.000000"
 preserveAspectRatio="xMidYMid meet">
<metadata>
Created by potrace 1.14, written by Peter Selinger 2001-2017
</metadata>
<g transform="translate(0.000000,1024.000000) scale(0.100000,-0.100000)"
fill="#000000" stroke="none">
<path d="M4850 10234 c-25 -2 -103 -9 -175 -14 -995 -83 -1990 -485 -2772
-1122 l-71 -58 -171 35 c-213 44 -305 46 -419 10 -98 -31 -206 -105 -262 -179
-52 -69 -355 -643 -378 -716 -11 -37 -17 -88 -17 -155 0 -88 5 -116 43 -240
l42 -140 -118 -235 c-327 -651 -496 -1280 -543 -2015 -12 -202 -7 -545 11
-745 140 -1499 905 -2828 2140 -3716 467 -336 1040 -607 1615 -764 637 -174
1328 -222 1990 -139 1814 228 3382 1429 4088 3130 329 792 451 1678 352 2541
-72 617 -282 1284 -571 1813 l-65 120 43 150 c37 130 43 162 43 245 0 61 -7
115 -18 150 -22 73 -325 647 -377 716 -56 74 -164 148 -262 179 -114 36 -206
34 -419 -10 l-171 -35 -71 58 c-775 628 -1706 1012 -2712 1117 -141 15 -671
28 -775 19z m84 -756 c19 -116 46 -391 39 -398 -4 -4 -32 -10 -60 -13 -62 -7
-57 -17 -73 138 -18 167 -9 166 -113 7 -51 -78 -97 -149 -103 -159 -10 -16
-27 -3 -145 109 -154 147 -148 149 -125 -37 8 -66 14 -120 13 -121 -1 -1 -30
-5 -64 -9 -57 -6 -63 -5 -63 12 0 10 -9 95 -20 188 -11 94 -21 183 -23 200
l-2 30 90 11 90 11 101 -98 c56 -55 106 -99 111 -99 6 0 43 49 83 110 40 60
79 115 86 121 13 11 89 25 146 28 23 1 28 -4 32 -31z m299 26 c43 -6 50 -12
108 -86 l63 -79 71 71 70 70 88 0 c48 0 87 -3 87 -6 0 -3 -47 -51 -105 -107
l-105 -102 100 -110 99 -110 -47 -3 c-105 -7 -125 2 -197 88 l-67 80 -79 -73
c-44 -39 -85 -72 -90 -71 -5 1 -43 2 -84 3 -41 0 -75 4 -75 9 0 4 50 51 110
105 l110 98 -77 92 c-42 51 -86 102 -96 115 l-20 22 45 0 c25 0 66 -3 91 -6z
m704 -64 c47 -11 54 -16 61 -43 5 -18 26 -96 47 -174 21 -79 42 -143 45 -143
6 0 213 236 232 263 7 11 148 -11 148 -23 0 -3 -72 -89 -161 -189 l-161 -183
-37 7 c-124 23 -129 25 -140 58 -17 56 -121 433 -121 441 0 4 8 5 18 3 9 -3
41 -11 69 -17z m-1877 -257 c34 -109 65 -203 67 -209 5 -13 -106 -49 -117 -37
-4 4 -25 62 -45 128 -20 66 -40 123 -44 128 -4 4 -38 -69 -75 -163 -37 -93
-71 -170 -75 -170 -4 0 -74 43 -157 95 -82 52 -152 95 -156 95 -4 0 13 -59 38
-132 24 -73 44 -135 44 -138 0 -6 -98 -40 -113 -40 -7 0 -141 410 -135 415 2
2 42 15 90 29 l86 27 123 -81 122 -81 59 140 59 140 72 25 c40 13 77 25 83 25
6 1 39 -88 74 -196z m2637 60 c22 -8 22 -9 -42 -203 -35 -106 -66 -199 -69
-206 -4 -9 -18 -8 -60 5 -30 9 -58 20 -62 23 -3 4 24 99 60 211 l66 205 42
-13 c24 -7 53 -17 65 -22z m266 -102 c6 -6 -135 -386 -149 -400 -5 -5 -104 28
-116 38 -4 4 24 87 63 186 39 99 75 190 80 202 l8 23 53 -21 c29 -11 57 -24
61 -28z m-5145 -457 c163 -36 311 -73 327 -83 26 -15 118 -85 583 -439 39 -30
72 -56 72 -57 0 -1 -25 -57 -56 -126 -31 -68 -65 -143 -75 -167 l-18 -42 22
11 c12 7 47 29 77 49 85 58 308 184 451 255 375 188 786 328 1172 399 291 54
368 60 747 60 379 0 455 -6 747 -59 531 -98 1075 -314 1583 -630 63 -39 121
-75 127 -79 14 -8 9 4 -81 204 -45 99 -54 126 -44 136 26 23 634 481 653 491
31 16 610 143 653 143 88 0 154 -60 292 -268 143 -215 218 -398 227 -556 5
-89 4 -97 -61 -330 -98 -352 -127 -402 -466 -792 l-214 -247 -133 269 -133
269 -231 83 c-128 45 -233 81 -234 80 -9 -10 606 -1390 1118 -2511 334 -730
607 -1332 607 -1337 0 -22 -127 -306 -199 -445 -89 -171 -174 -314 -273 -463
-71 -106 -251 -346 -311 -417 l-34 -39 4 49 c3 28 30 360 62 739 l57 689 -135
232 c-588 1006 -986 1683 -989 1681 -1 -2 105 -302 237 -667 131 -365 297
-837 369 -1049 l130 -385 -110 -890 -109 -890 -27 -23 c-572 -482 -1206 -814
-1896 -992 -366 -95 -690 -139 -1086 -147 -447 -10 -802 29 -1225 132 -759
185 -1456 554 -2045 1083 l-55 50 -111 908 -112 909 226 440 c124 242 229 447
234 455 6 9 7 -166 3 -444 l-6 -459 287 -956 c170 -567 294 -962 304 -971 24
-23 570 -333 576 -328 2 3 -165 508 -372 1124 l-376 1119 -62 1067 c-34 587
-64 1070 -67 1072 -3 3 -259 -430 -570 -962 l-566 -967 58 -690 c32 -379 58
-709 58 -733 l1 -44 -24 29 c-117 140 -336 484 -462 728 -76 148 -204 432
-204 455 0 5 273 607 607 1337 506 1107 1127 2501 1119 2510 -2 2 -107 -34
-234 -80 l-232 -82 -133 -269 -133 -269 -214 247 c-339 390 -368 440 -466 792
-65 233 -66 241 -61 330 9 158 84 341 227 556 138 208 204 268 292 268 21 0
172 -30 336 -66z"/>
<path d="M4965 7121 c-127 -38 -303 -124 -449 -218 l-68 -44 -720 96 c-396 53
-722 94 -724 92 -2 -2 -14 -94 -25 -205 l-21 -200 105 -152 105 -152 203 -149
c112 -82 207 -153 211 -157 5 -5 -51 -143 -123 -308 -72 -164 -212 -488 -312
-719 l-180 -420 27 -359 27 -359 55 -51 c30 -28 142 -132 248 -231 l192 -180
238 -408 c131 -224 243 -410 248 -413 5 -3 72 31 148 75 77 45 143 81 148 81
4 -1 121 -141 260 -313 139 -172 269 -331 290 -355 l37 -43 115 320 c63 177
117 321 120 321 3 0 57 -144 120 -321 l115 -320 37 43 c21 24 151 183 290 355
139 172 256 312 260 313 5 0 71 -36 148 -81 76 -44 143 -78 148 -75 5 3 117
189 248 413 l238 408 247 230 247 230 5 55 c3 30 16 192 28 360 l22 305 -166
385 c-91 212 -229 531 -307 710 -78 179 -144 330 -147 336 -2 6 91 81 206 165
l211 154 106 153 106 154 -21 200 c-11 111 -23 203 -25 205 -2 2 -326 -39
-721 -92 l-717 -96 -101 61 c-123 74 -299 161 -387 191 -90 31 -260 36 -345
10z m-1211 -395 c219 -36 401 -67 403 -70 2 -2 -25 -56 -61 -118 l-66 -115
-118 -27 -119 -27 -134 51 c-134 51 -134 51 -252 156 -109 99 -117 108 -117
142 0 66 9 84 39 78 14 -3 205 -35 425 -70z m3190 52 c3 -13 6 -39 6 -60 0
-34 -8 -43 -117 -141 -116 -104 -118 -106 -250 -157 l-133 -51 -120 27 -121
28 -65 114 c-36 63 -64 116 -61 118 3 3 806 139 843 143 7 1 14 -9 18 -21z
m-1639 -144 l130 -17 223 -104 223 -103 155 -142 154 -142 120 -283 c229 -538
473 -1149 531 -1330 l23 -72 -18 -173 c-10 -95 -20 -191 -23 -214 l-5 -41
-185 -58 -184 -59 -87 29 c-209 69 -352 113 -352 109 0 -4 200 -222 307 -335
l44 -46 -433 -126 c-424 -124 -437 -127 -620 -148 l-187 -21 -188 22 c-183 21
-198 24 -621 147 l-433 127 44 45 c104 110 307 331 307 334 0 3 -99 -27 -220
-66 l-221 -71 -182 59 c-100 33 -183 60 -184 60 -1 1 -12 96 -25 213 l-22 212
23 72 c58 182 302 793 531 1331 l120 283 159 144 158 145 224 102 c215 98 228
103 334 117 149 19 227 19 380 0z"/>
<path d="M5033 6280 c-34 -5 -77 -13 -96 -18 -68 -19 -628 -244 -642 -259 -21
-21 -20 -30 33 -207 l47 -160 305 -221 305 -220 3 -140 2 -140 -91 -105 c-50
-58 -94 -108 -98 -112 -3 -4 -117 -30 -251 -58 -135 -28 -253 -53 -263 -56
-18 -6 -291 -363 -284 -371 2 -2 89 42 193 97 l189 100 735 0 735 0 190 -100
c104 -55 190 -98 192 -96 7 7 -267 365 -284 370 -10 3 -128 28 -263 56 -135
28 -248 54 -251 58 -4 4 -48 54 -98 112 l-91 105 2 140 3 140 305 220 305 220
47 160 c53 179 54 187 33 209 -22 21 -609 252 -675 264 -86 17 -169 21 -237
12z"/>
</g>
</svg>
